<?xml version="1.0" encoding="UTF-8" standalone="no"?>
<!DOCTYPE svg PUBLIC "-//W3C//DTD SVG 1.1//EN" "http://www.w3.org/Graphics/SVG/1.1/DTD/svg11.dtd">
<svg width="100%" height="100%" viewBox="0 0 16 16" version="1.1" xmlns="http://www.w3.org/2000/svg" xmlns:xlink="http://www.w3.org/1999/xlink" xml:space="preserve" xmlns:serif="http://www.serif.com/" style="fill-rule:evenodd;clip-rule:evenodd;stroke-linejoin:round;stroke-miterlimit:2;">
    <g transform="matrix(0.25,0,0,0.25,0,0)">
        <path d="M19.708,29.15L34.785,40.716L35.873,42.626L41.896,35.738L41.836,34.299L25.739,22.725L19.708,29.15Z" style="fill:rgb(163,255,163);"/>
    </g>
    <g transform="matrix(0.25,0,0,0.25,0,0)">
        <path d="M19.028,29.959L4.716,44.399L18.166,56.377L22.182,54.086L21.242,59.116L22.321,60.077L34.999,43.671L34.271,41.615L19.028,29.959Z" style="fill:rgb(163,255,163);"/>
    </g>
    <g transform="matrix(0.25,0,0,0.25,0,0)">
        <path d="M59.584,3.087C59.5,5.095 55.304,10.577 53.348,12.638C50.1,16.062 45.691,19.262 43.354,22.002C42.063,23.515 40.627,26.393 41.587,28.755C42.325,30.572 44.057,32.776 43.754,33.288C43.616,33.522 43.563,33.638 42.951,33.917C41.009,32.892 36.415,28.927 33.843,27.126C31.174,25.256 27.165,22.514 26.328,21.761C27.115,20.767 26.773,21.225 27.33,20.754C27.887,20.282 33.444,22.079 37.856,20.152C41.716,17.169 44.323,11.628 47.151,8.715C49.978,5.802 55.274,0.566 57.217,0.919C58.459,1.433 58.896,1.679 59.584,3.087Z" style="fill:rgb(163,255,163);"/>
    </g>
</svg>
